<svg xmlns="http://www.w3.org/2000/svg" xmlns:xlink="http://www.w3.org/1999/xlink" width="357" zoomAndPan="magnify" viewBox="0 0 267.75 44.999999" height="60" preserveAspectRatio="xMidYMid meet" version="1.0"><defs><g/></defs><g fill="#000000" fill-opacity="1"><g transform="translate(1.410392, 34.56509)"><g><path d="M 17.515625 -3.90625 L 1.6875 -10.859375 L 1.6875 -12.53125 L 17.515625 -20.4375 L 17.515625 -17.8125 L 4.84375 -11.828125 L 17.515625 -6.515625 Z M 17.515625 -3.90625 "/></g></g></g><g fill="#000000" fill-opacity="1"><g transform="translate(22.888286, 34.56509)"><g><path d="M 17.714844 0 L 17.714844 -5.109375 L 6.488281 -5.109375 L 6.488281 -17.277344 L 17.714844 -17.277344 L 17.714844 -22.421875 L 0.875 -22.421875 L 0.875 0 Z M 17.714844 0 "/></g></g></g><g fill="#000000" fill-opacity="1"><g transform="translate(43.525895, 34.56509)"><g><path d="M 17.714844 0 L 17.714844 -22.421875 L 0.875 -22.421875 L 0.875 0 Z M 12.101562 -5.109375 L 6.488281 -5.109375 L 6.488281 -17.277344 L 12.101562 -17.277344 Z M 12.101562 -5.109375 "/></g></g></g><g fill="#000000" fill-opacity="1"><g transform="translate(64.365177, 34.56509)"><g><path d="M 17.378906 0 L 17.378906 -22.421875 L 0.539062 -22.421875 L 0.539062 -17.277344 L 1.648438 -17.277344 L 1.648438 -5.109375 L 0.539062 -5.109375 L 0.539062 0 Z M 11.765625 -5.109375 L 6.152344 -5.109375 L 6.152344 -17.277344 L 11.765625 -17.277344 Z M 11.765625 -5.109375 "/></g></g></g><g fill="#000000" fill-opacity="1"><g transform="translate(84.868336, 34.56509)"><g><path d="M 17.648438 0 L 17.648438 -5.109375 L 6.488281 -5.109375 L 6.488281 -8.808594 L 17.648438 -8.808594 L 17.648438 -13.746094 L 6.488281 -13.746094 L 6.488281 -17.277344 L 17.648438 -17.277344 L 17.648438 -22.421875 L 0.875 -22.421875 L 0.875 0 Z M 17.648438 0 "/></g></g></g><g fill="#000000" fill-opacity="1"><g transform="translate(105.640391, 34.56509)"><g><path d="M 17.714844 0 L 17.714844 -5.109375 L 6.488281 -5.109375 L 6.488281 -17.277344 L 17.714844 -17.277344 L 17.714844 -22.421875 L 0.875 -22.421875 L 0.875 0 Z M 17.714844 0 "/></g></g></g><g fill="#000000" fill-opacity="1"><g transform="translate(126.277997, 34.56509)"><g><path d="M 17.714844 0 L 17.714844 -22.421875 L 0.875 -22.421875 L 0.875 0 L 6.488281 0 L 6.488281 -6.253906 L 12.101562 -6.253906 L 12.101562 0 Z M 12.101562 -11.359375 L 6.488281 -11.359375 L 6.488281 -17.277344 L 12.101562 -17.277344 Z M 12.101562 -11.359375 "/></g></g></g><g fill="#000000" fill-opacity="1"><g transform="translate(147.117284, 34.56509)"><g><path d="M 17.34375 0 L 17.34375 -22.421875 L 0.503906 -22.421875 L 0.503906 -17.277344 L 1.613281 -17.277344 L 1.613281 0 L 6.117188 0 L 6.117188 -17.277344 L 11.730469 -17.277344 L 11.730469 0 Z M 17.34375 0 "/></g></g></g><g fill="#000000" fill-opacity="1"><g transform="translate(167.586843, 34.56509)"><g><path d="M 18.453125 -17.277344 L 18.453125 -22.421875 L 11.730469 -22.421875 L 11.730469 -5.109375 L 7.226562 -5.109375 L 7.226562 -22.421875 L 0.503906 -22.421875 L 0.503906 -17.277344 L 1.613281 -17.277344 L 1.613281 0 L 17.34375 0 L 17.34375 -17.277344 Z M 18.453125 -17.277344 "/></g></g></g><g fill="#000000" fill-opacity="1"><g transform="translate(188.795857, 34.56509)"><g><path d="M 17.714844 0 L 17.714844 -22.421875 L 0.875 -22.421875 L 0.875 0 L 6.488281 0 L 6.488281 -6.253906 L 12.101562 -6.253906 L 12.101562 0 Z M 12.101562 -11.359375 L 6.488281 -11.359375 L 6.488281 -17.277344 L 12.101562 -17.277344 Z M 12.101562 -11.359375 "/></g></g></g><g fill="#000000" fill-opacity="1"><g transform="translate(209.635143, 34.56509)"><g><path d="M 17.714844 0 L 17.714844 -13.746094 L 6.488281 -13.746094 L 6.488281 -17.277344 L 17.714844 -17.277344 L 17.714844 -22.421875 L 0.875 -22.421875 L 0.875 -8.808594 L 12.101562 -8.808594 L 12.101562 -5.109375 L 0.875 -5.109375 L 0.875 0 Z M 17.714844 0 "/></g></g></g><g fill="#000000" fill-opacity="1"><g transform="translate(230.440814, 34.56509)"><g><path d="M 13.816406 -22.421875 L 8.203125 -22.421875 L -0.46875 8.671875 L 5.210938 8.671875 Z M 13.816406 -22.421875 "/></g></g></g><g fill="#000000" fill-opacity="1"><g transform="translate(247.11225, 34.56509)"><g><path d="M 1.6875 -6.515625 L 14.34375 -11.796875 L 1.6875 -17.8125 L 1.6875 -20.4375 L 17.515625 -12.53125 L 17.515625 -10.859375 L 1.6875 -3.90625 Z M 1.6875 -6.515625 "/></g></g></g></svg>